# xmcd
#
# Track frame offsets: 
#        150
#        12853
#        26486
#        38204
#        51759
#        63663
#        76216
#        90780
#        102421
#        114557
#        125955
#        139172
#        152805
#        165983
#        178417
#        192120
#        204352
#        219088
#        232096
#        243585
#        256256
#        270505
#        282624
#        296331
#
# Disc length: 4119 seconds
#
# Revision: 1
# Processed by: cddbd v1.5.2PL0 Copyright (c) Steve Scherf et al.
# Submitted via: ExactAudioCopy v0.95b4
#
DISCID=56101518
DTITLE=Various Artist - Barbecue Any Old Time: Blues From The Pit - 1
DTITLE=927-1942
DYEAR=2011
DGENRE=Blues
TTITLE0=Frankie "Half Pint" Jaxon - Down At Jaspers Bar-B-Que
TTITLE1="Big Boy" Teddy Edwards - Who Did You Give Barbecue To?
TTITLE2=Memphis Minnie - Pig Meat On The Line
TTITLE3=The Two Charles - Pork Chop Blues
TTITLE4=Mississippi Jook Band - Barbecue Bust
TTITLE5=Blind Boy Fuller - I Crave My Pig Meat
TTITLE6=Barbecue Bob - Barbecue Blues
TTITLE7=Charlie Campbell And His Red Peppers - Pepper Sauce Mama
TTITLE8=Georgia White - Pigmeat Blues
TTITLE9=Frankie "Half Pint" Jaxon - Gimme A Pig's Foot And A Bottle Of
TTITLE9=Beer
TTITLE10=Tiny Parham And His Musicians - Pig's Feet And Slaw
TTITLE11=The Four Southern Singers - Ham Bone Am Sweet
TTITLE12=Hunter And Jenkins - Meat Cuttin' Blues
TTITLE13=Brownie McGhee - Barbecue Any Old Time
TTITLE14=Jolly Two - Come On Down
TTITLE15=Bessie Jackson - Barbecue Bess
TTITLE16=Bogus Ben Covington - I Heard The Voice Of A Pork Chop
TTITLE17=Bo Carter - Pig Meat Is What I Crave
TTITLE18=Savannah Churchill And Her All Star Seven - Fat Meat Is Good 
TTITLE18=Meat
TTITLE19=Richard M. Jones' Jazz Wizards - Smoked Meat Blues
TTITLE20=Vance Dixon And His Pencils - Meat Man Pete
TTITLE21=Hank Jones And His Ginger - Barbecue Blues
TTITLE22="Big Boy" Teddy Edwards - Who Did You Give My Barbecue To? Pa
TTITLE22=rt 2
TTITLE23=Tempo King And His Kings Of Tempo - Alabama Barbecue
EXTD=
EXTT0=
EXTT1=
EXTT2=
EXTT3=
EXTT4=
EXTT5=
EXTT6=
EXTT7=
EXTT8=
EXTT9=
EXTT10=
EXTT11=
EXTT12=
EXTT13=
EXTT14=
EXTT15=
EXTT16=
EXTT17=
EXTT18=
EXTT19=
EXTT20=
EXTT21=
EXTT22=
EXTT23=
PLAYORDER=
